0
SECTION
2
HEADER
9
$INSUNITS
70
4
9
$ACADVER
1
AC1014
9
$HANDSEED
5
FFFF
0
ENDSEC
0
SECTION
2
TABLES
0
TABLE
2
VPORT
5
8
100
AcDbSymbolTable
0
ENDTAB
0
TABLE
2
LTYPE
5
5
100
AcDbSymbolTable
0
LTYPE
5
14
100
AcDbSymbolTableRecord
100
AcDbLinetypeTableRecord
2
BYBLOCK
70
0
0
LTYPE
5
15
100
AcDbSymbolTableRecord
100
AcDbLinetypeTableRecord
2
BYLAYER
70
0
0
LTYPE
5
16
100
AcDbSymbolTableRecord
100
AcDbLinetypeTableRecord
2
DASHED
70
0
3
Dashed __ __ __ __ __ __ __ __ __ __ __ __ __ _
72
65
73
2
40
0.75
49
0.5
74
0
49
-0.25
74
0
0
ENDTAB
0
TABLE
2
LAYER
5
2
100
AcDbSymbolTable
70
2
0
LAYER
5
50
100
AcDbSymbolTableRecord
100
AcDbLayerTableRecord
2
0
70
0
62
7
6
CONTINUOUS
0
ENDTAB
0
TABLE
2
STYLE
5
3
100
AcDbSymbolTable
70
1
0
STYLE
5
11
100
AcDbSymbolTableRecord
100
AcDbTextStyleTableRecord
2
STANDARD
70
0
0
ENDTAB
0
TABLE
2
VIEW
5
6
100
AcDbSymbolTable
70
0
0
ENDTAB
0
TABLE
2
UCS
5
7
100
AcDbSymbolTable
70
0
0
ENDTAB
0
TABLE
2
APPID
5
9
100
AcDbSymbolTable
70
2
0
APPID
5
12
100
AcDbSymbolTableRecord
100
AcDbRegAppTableRecord
2
ACAD
70
0
0
ENDTAB
0
TABLE
2
DIMSTYLE
5
A
100
AcDbSymbolTable
70
1
0
ENDTAB
0
TABLE
2
BLOCK_RECORD
5
1
100
AcDbSymbolTable
70
1
0
BLOCK_RECORD
5
1F
100
AcDbSymbolTableRecord
100
AcDbBlockTableRecord
2
*MODEL_SPACE
0
BLOCK_RECORD
5
1B
100
AcDbSymbolTableRecord
100
AcDbBlockTableRecord
2
*PAPER_SPACE
0
ENDTAB
0
ENDSEC
0
SECTION
2
BLOCKS
0
BLOCK
5
20
100
AcDbEntity
100
AcDbBlockBegin
2
*MODEL_SPACE
0
ENDBLK
5
21
100
AcDbEntity
100
AcDbBlockEnd
0
BLOCK
5
1C
100
AcDbEntity
100
AcDbBlockBegin
2
*PAPER_SPACE
0
ENDBLK
5
1D
100
AcDbEntity
100
AcDbBlockEnd
0
ENDSEC
0
SECTION
2
ENTITIES
0
LWPOLYLINE
5
100
100
AcDbEntity
8
OUTER_PROFILES
100
AcDbPolyline
90
26
70
1
43
0.0
10
210.92350290290796
20
0
10
230.3798713712132
20
0.85994941893130949
10
234.02755739191363
20
2.5014081282464762
10
239.80068577575037
20
-10.327766058057399
42
0.41421356237309653
10
245.089830505766
20
-12.33399336944264
10
274.27131867136939
20
0.79767630507888598
42
0.41421356237309398
10
276.27754598275465
20
6.0868210350945064
10
246.73128921508118
20
71.745169407702207
42
0.41421356237309542
10
241.44214448506551
20
73.751396719087438
10
212.26065631946216
20
60.619727044565927
42
0.41421356237309392
10
210.25442900807693
20
55.330582314550306
10
216.02755739191366
20
42.501408128246439
10
212.37987137121326
20
40.859949418931251
10
192.92350290290798
20
39.999999999999986
10
97.777777777777857
20
40.000000000000007
42
-0.80813999293070782
10
96.95704842312027
20
43.823843010350231
10
104.20199440834351
20
47.08406870370068
42
0.41421356237309503
10
106.20822171972875
20
52.373213433716295
10
88.972905271919331
20
90.673916651070613
42
0.41421356237309453
10
83.683760541903709
20
92.680143962455872
10
-36.689878141210386
20
38.512006555054533
42
0.41421356237309492
10
-38.696105452595631
20
33.222861825038919
10
-21.460789004786221
20
-5.0778413923154009
42
0.41421356237309576
10
-16.1716442747706
20
-7.084068703700642
10
-0.82072935465763885
20
-0.17615698964980075
42
-0.10610904455374832
10
-2.7894353493707058e-14
20
-1.0269562977782698e-14
0
CIRCLE
5
101
100
AcDbEntity
8
INTERIOR_PROFILES
100
AcDbCircle
10
-251.4732810419917
20
12.470271571320257
30
0
40
4.000000000000008
210
0
220
0
230
-1
0
CIRCLE
5
102
100
AcDbEntity
8
INTERIOR_PROFILES
100
AcDbCircle
10
-235.05869394883976
20
48.947131778324518
30
0
40
4.000000000000008
210
0
220
0
230
-1
0
CIRCLE
5
103
100
AcDbEntity
8
INTERIOR_PROFILES
100
AcDbCircle
10
10.973691695272372
20
32.538920696157668
30
0
40
3.399999999999999
210
0
220
0
230
-1
0
CIRCLE
5
104
100
AcDbEntity
8
INTERIOR_PROFILES
100
AcDbCircle
10
-71.099243770487192
20
69.471741655749469
30
0
40
3.4000000000000012
210
0
220
0
230
-1
0
LINE
5
105
100
AcDbEntity
8
BEND
100
AcDbLine
10
220.65168713706055
20
0.42997470946565919
30
-1.9751848965017871e-14
11
202.65168713706058
21
40.429974709465597
31
-5.9367048647535286e-15
0
ENDSEC
0
SECTION
2
OBJECTS
0
DICTIONARY
5
C
100
AcDbDictionary
3
ACAD_GROUP
350
D
3
ACAD_MLINESTYLE
350
17
0
DICTIONARY
5
D
100
AcDbDictionary
0
DICTIONARY
5
1A
330
C
100
AcDbDictionary
0
DICTIONARY
5
17
100
AcDbDictionary
0
ENDSEC
0
EOF
