0
SECTION
2
HEADER
9
$INSUNITS
70
4
9
$ACADVER
1
AC1014
9
$HANDSEED
5
FFFF
0
ENDSEC
0
SECTION
2
TABLES
0
TABLE
2
VPORT
5
8
100
AcDbSymbolTable
0
ENDTAB
0
TABLE
2
LTYPE
5
5
100
AcDbSymbolTable
0
LTYPE
5
14
100
AcDbSymbolTableRecord
100
AcDbLinetypeTableRecord
2
BYBLOCK
70
0
0
LTYPE
5
15
100
AcDbSymbolTableRecord
100
AcDbLinetypeTableRecord
2
BYLAYER
70
0
0
LTYPE
5
16
100
AcDbSymbolTableRecord
100
AcDbLinetypeTableRecord
2
DASHED
70
0
3
Dashed __ __ __ __ __ __ __ __ __ __ __ __ __ _
72
65
73
2
40
0.75
49
0.5
74
0
49
-0.25
74
0
0
ENDTAB
0
TABLE
2
LAYER
5
2
100
AcDbSymbolTable
70
2
0
LAYER
5
50
100
AcDbSymbolTableRecord
100
AcDbLayerTableRecord
2
0
70
0
62
7
6
CONTINUOUS
0
ENDTAB
0
TABLE
2
STYLE
5
3
100
AcDbSymbolTable
70
1
0
STYLE
5
11
100
AcDbSymbolTableRecord
100
AcDbTextStyleTableRecord
2
STANDARD
70
0
0
ENDTAB
0
TABLE
2
VIEW
5
6
100
AcDbSymbolTable
70
0
0
ENDTAB
0
TABLE
2
UCS
5
7
100
AcDbSymbolTable
70
0
0
ENDTAB
0
TABLE
2
APPID
5
9
100
AcDbSymbolTable
70
2
0
APPID
5
12
100
AcDbSymbolTableRecord
100
AcDbRegAppTableRecord
2
ACAD
70
0
0
ENDTAB
0
TABLE
2
DIMSTYLE
5
A
100
AcDbSymbolTable
70
1
0
ENDTAB
0
TABLE
2
BLOCK_RECORD
5
1
100
AcDbSymbolTable
70
1
0
BLOCK_RECORD
5
1F
100
AcDbSymbolTableRecord
100
AcDbBlockTableRecord
2
*MODEL_SPACE
0
BLOCK_RECORD
5
1B
100
AcDbSymbolTableRecord
100
AcDbBlockTableRecord
2
*PAPER_SPACE
0
ENDTAB
0
ENDSEC
0
SECTION
2
BLOCKS
0
BLOCK
5
20
100
AcDbEntity
100
AcDbBlockBegin
2
*MODEL_SPACE
0
ENDBLK
5
21
100
AcDbEntity
100
AcDbBlockEnd
0
BLOCK
5
1C
100
AcDbEntity
100
AcDbBlockBegin
2
*PAPER_SPACE
0
ENDBLK
5
1D
100
AcDbEntity
100
AcDbBlockEnd
0
ENDSEC
0
SECTION
2
ENTITIES
0
LWPOLYLINE
5
100
100
AcDbEntity
8
0
100
AcDbPolyline
90
19
70
1
43
0.0
10
-34.999999987879441
20
-73.704369859588269
42
0.12745818652500068
10
-34.370786368487131
20
-76.132584514403163
10
-11.428769623214947
20
-117.42821465589317
42
0.27237534414458026
10
-7.0579832426072633
20
-120.00000000000001
10
7.0579832426072686
20
-120
42
0.27237534414457992
10
11.428769623214951
20
-117.42821465589316
10
34.370786368207717
20
-76.132584514906171
42
0.12745818657978739
10
34.999999987600035
20
-73.704369859013013
10
34.999999987600042
20
-7.9999999999999982
42
0.51227656813186351
10
24.461562739794104
20
-0.4134107578116894
42
-0.07871174343915012
10
0.039089868040114585
20
-4.4998302170433728
42
-1.0043528331283265
10
2.6020852139652111e-16
20
4.5000000000000018
42
0.32896482244990533
10
33.919253953574056
20
29.524590163962525
42
0.50493072970389719
10
29.141894241798923
20
36.000000000024158
10
-1.1331077803567767e-15
20
36
42
-0.99999999999999989
10
1.1331077803567767e-15
20
44
10
28.618176042513539
20
43.999999999999773
42
0.50654796018672754
10
33.387872049598393
20
50.499999999999488
42
0.85818199994005306
10
-35.000000000004903
20
39.999999999999972
0
LWPOLYLINE
5
101
100
AcDbEntity
8
0
100
AcDbPolyline
90
4
70
1
43
0.0
10
23.499999995652985
20
-41.999999999157808
42
0.99999999999999989
10
16.499999995718326
20
-42.000000000842178
10
16.500000004344855
20
-77.000000000857838
42
0.99999999999999989
10
23.50000000430628
20
-76.999999999134872
0
LWPOLYLINE
5
102
100
AcDbEntity
8
0
100
AcDbPolyline
90
4
70
1
43
0.0
10
-16.499999995698452
20
-42.000000000864134
42
0.99999999999999989
10
-23.499999995672887
20
-41.999999999135866
10
-23.500000004306287
20
-76.999999999138282
42
0.99999999999999989
10
-16.500000004318629
20
-77.00000000086591
0
LWPOLYLINE
5
103
100
AcDbEntity
8
0
100
AcDbPolyline
90
4
70
1
43
0.0
10
3.4999999926039727
20
-51.999999999137145
42
0.99999999999999989
10
-3.5000000073960269
20
-52.000000000862897
10
-3.4999999926039815
20
-112.00000000086285
42
0.99999999999999989
10
3.5000000073960247
20
-111.99999999913713
0
ENDSEC
0
SECTION
2
OBJECTS
0
DICTIONARY
5
C
100
AcDbDictionary
3
ACAD_GROUP
350
D
3
ACAD_MLINESTYLE
350
17
0
DICTIONARY
5
D
100
AcDbDictionary
0
DICTIONARY
5
1A
330
C
100
AcDbDictionary
0
DICTIONARY
5
17
100
AcDbDictionary
0
ENDSEC
0
EOF
