0
SECTION
2
HEADER
9
$INSUNITS
70
4
9
$ACADVER
1
AC1014
9
$HANDSEED
5
FFFF
0
ENDSEC
0
SECTION
2
TABLES
0
TABLE
2
VPORT
5
8
100
AcDbSymbolTable
0
ENDTAB
0
TABLE
2
LTYPE
5
5
100
AcDbSymbolTable
0
LTYPE
5
14
100
AcDbSymbolTableRecord
100
AcDbLinetypeTableRecord
2
BYBLOCK
70
0
0
LTYPE
5
15
100
AcDbSymbolTableRecord
100
AcDbLinetypeTableRecord
2
BYLAYER
70
0
0
LTYPE
5
16
100
AcDbSymbolTableRecord
100
AcDbLinetypeTableRecord
2
DASHED
70
0
3
Dashed __ __ __ __ __ __ __ __ __ __ __ __ __ _
72
65
73
2
40
0.75
49
0.5
74
0
49
-0.25
74
0
0
ENDTAB
0
TABLE
2
LAYER
5
2
100
AcDbSymbolTable
70
2
0
LAYER
5
50
100
AcDbSymbolTableRecord
100
AcDbLayerTableRecord
2
0
70
0
62
7
6
CONTINUOUS
0
ENDTAB
0
TABLE
2
STYLE
5
3
100
AcDbSymbolTable
70
1
0
STYLE
5
11
100
AcDbSymbolTableRecord
100
AcDbTextStyleTableRecord
2
STANDARD
70
0
0
ENDTAB
0
TABLE
2
VIEW
5
6
100
AcDbSymbolTable
70
0
0
ENDTAB
0
TABLE
2
UCS
5
7
100
AcDbSymbolTable
70
0
0
ENDTAB
0
TABLE
2
APPID
5
9
100
AcDbSymbolTable
70
2
0
APPID
5
12
100
AcDbSymbolTableRecord
100
AcDbRegAppTableRecord
2
ACAD
70
0
0
ENDTAB
0
TABLE
2
DIMSTYLE
5
A
100
AcDbSymbolTable
70
1
0
ENDTAB
0
TABLE
2
BLOCK_RECORD
5
1
100
AcDbSymbolTable
70
1
0
BLOCK_RECORD
5
1F
100
AcDbSymbolTableRecord
100
AcDbBlockTableRecord
2
*MODEL_SPACE
0
BLOCK_RECORD
5
1B
100
AcDbSymbolTableRecord
100
AcDbBlockTableRecord
2
*PAPER_SPACE
0
ENDTAB
0
ENDSEC
0
SECTION
2
BLOCKS
0
BLOCK
5
20
100
AcDbEntity
100
AcDbBlockBegin
2
*MODEL_SPACE
0
ENDBLK
5
21
100
AcDbEntity
100
AcDbBlockEnd
0
BLOCK
5
1C
100
AcDbEntity
100
AcDbBlockBegin
2
*PAPER_SPACE
0
ENDBLK
5
1D
100
AcDbEntity
100
AcDbBlockEnd
0
ENDSEC
0
SECTION
2
ENTITIES
0
LWPOLYLINE
5
100
100
AcDbEntity
8
OUTER_PROFILES
100
AcDbPolyline
90
16
70
1
43
0.0
10
2.7755575615628914e-15
20
1.3322676295501878e-14
42
-0.41421356237309509
10
-6.0000000000000009
20
6.0000000000000124
10
-5.9999999999999787
20
30.785840131753961
10
-102.15027937875774
20
30.78584013175394
42
-0.41421356237309531
10
-108.15027937875774
20
36.785840131753943
10
-108.1502793787578
20
164.78584013175393
42
-0.4142135623730942
10
-102.1502793787578
20
170.78584013175396
10
-6.0000000000000142
20
170.78584013175396
10
-6.0000000000000373
20
195.57168026350791
42
-0.41421356237309537
10
-2.9233192679998275e-14
20
201.57168026350791
10
213.99999999999994
20
201.57168026350791
10
213.99999999999994
20
170.78584013175399
10
270.7858401317539
20
170.78584013175401
10
270.78584013175396
20
30.785840131754014
10
214.00000000000003
20
30.785840131753979
10
214.00000000000003
20
0
0
LWPOLYLINE
5
101
100
AcDbEntity
8
INTERIOR_PROFILES
100
AcDbPolyline
90
4
70
1
43
0.0
10
246.12898588226156
20
152.78584013175399
42
-2.0938363213560525
10
246.12898588226156
20
138.78584013175401
10
236.78584013175393
20
139.78584013175401
42
-0.99999999999999989
10
236.78584013175393
20
151.78584013175399
0
LWPOLYLINE
5
102
100
AcDbEntity
8
INTERIOR_PROFILES
100
AcDbPolyline
90
4
70
1
43
0.0
10
236.78584013175396
20
49.785840131753986
42
-0.99999999999999989
10
236.78584013175396
20
61.785840131753972
10
246.12898588226159
20
62.785840131753979
42
-2.0938363213560498
10
246.12898588226159
20
48.785840131753972
0
CIRCLE
5
103
100
AcDbEntity
8
INTERIOR_PROFILES
100
AcDbCircle
10
-33.999999999999986
20
130.78584013175396
30
0
40
20.500000000000007
210
0
220
0
230
-1
0
LINE
5
104
100
AcDbEntity
8
BEND
100
AcDbLine
10
-7.6964600329384325
20
30.785840131753961
30
2.6536356700440988e-14
11
-7.696460032938468
21
170.78584013175396
31
2.6536356700440988e-14
0
LINE
5
105
100
AcDbEntity
8
BEND
100
AcDbLine
10
-6.0000000000000142
20
27.392920065876982
30
2.3314683517128287e-14
11
214
21
27.392920065877
31
2.3314683517128306e-14
0
LINE
5
106
100
AcDbEntity
8
BEND
100
AcDbLine
10
213.99999999999994
20
174.17876019763096
30
2.3314683517128306e-14
11
-6.0000000000000497
21
174.17876019763094
31
2.3314683517128287e-14
0
LINE
5
107
100
AcDbEntity
8
BEND
100
AcDbLine
10
217.39292006587706
20
30.785840131753979
30
3.3306690738754715e-14
11
217.39292006587701
21
170.78584013175399
31
3.9968028886505648e-14
0
LINE
5
108
100
AcDbEntity
8
BEND_EXTENT
100
AcDbLine
10
220.7858401317539
20
170.78584013175399
30
4.4408920985006274e-14
11
220.78584013175399
21
30.785840131753979
31
2.6645352591003776e-14
0
LWPOLYLINE
5
109
100
AcDbEntity
8
BEND_EXTENT
100
AcDbPolyline
90
4
70
1
43
0.0
10
214.00000000000003
20
30.785840131753979
10
213.99999999999994
20
170.78584013175399
10
-6.0000000000000142
20
170.78584013175396
10
-5.9999999999999787
20
30.785840131753961
0
LINE
5
110
100
AcDbEntity
8
BEND_EXTENT
100
AcDbLine
10
214
20
24.000000000000004
30
1.7763568394002524e-14
11
-6.0000000000000142
21
23.999999999999986
31
1.7763568394002505e-14
0
LINE
5
111
100
AcDbEntity
8
BEND_EXTENT
100
AcDbLine
10
-6.0000000000000497
20
177.57168026350791
30
8.8817841970012523e-15
11
213.99999999999994
21
177.57168026350794
31
8.8817841970012713e-15
0
LINE
5
112
100
AcDbEntity
8
BEND_EXTENT
100
AcDbLine
10
-9.3929200658769574
20
30.785840131753961
30
3.5527136788005009e-14
11
-9.3929200658769929
21
170.78584013175396
31
3.5527136788005009e-14
0
ENDSEC
0
SECTION
2
OBJECTS
0
DICTIONARY
5
C
100
AcDbDictionary
3
ACAD_GROUP
350
D
3
ACAD_MLINESTYLE
350
17
0
DICTIONARY
5
D
100
AcDbDictionary
0
DICTIONARY
5
1A
330
C
100
AcDbDictionary
0
DICTIONARY
5
17
100
AcDbDictionary
0
ENDSEC
0
EOF
